<svg width="1940" height="920" viewBox="0 0 1940 920" fill="none" xmlns="http://www.w3.org/2000/svg">
  <defs>
    <linearGradient id="bg" x1="160" y1="110" x2="1780" y2="830" gradientUnits="userSpaceOnUse">
      <stop stop-color="#F8F1E5"/>
      <stop offset="0.52" stop-color="#FFF8F0"/>
      <stop offset="1" stop-color="#F1EFE8"/>
    </linearGradient>
    <linearGradient id="accent" x1="1210" y1="180" x2="1640" y2="640" gradientUnits="userSpaceOnUse">
      <stop stop-color="#163B65"/>
      <stop offset="1" stop-color="#2A6A8E"/>
    </linearGradient>
    <linearGradient id="warm" x1="1040" y1="280" x2="1545" y2="735" gradientUnits="userSpaceOnUse">
      <stop stop-color="#F6A34F"/>
      <stop offset="1" stop-color="#E5653A"/>
    </linearGradient>
    <filter id="shadow" x="1032" y="166" width="654" height="638" filterUnits="userSpaceOnUse" color-interpolation-filters="sRGB">
      <feFlood flood-opacity="0" result="BackgroundImageFix"/>
      <feColorMatrix in="SourceAlpha" type="matrix" values="0 0 0 0 0 0 0 0 0 0 0 0 0 0 0 0 0 0 127 0" result="hardAlpha"/>
      <feOffset dy="32"/>
      <feGaussianBlur stdDeviation="36"/>
      <feColorMatrix type="matrix" values="0 0 0 0 0.0862745 0 0 0 0 0.231373 0 0 0 0 0.396078 0 0 0 0.18 0"/>
      <feBlend mode="normal" in2="BackgroundImageFix" result="effect1_dropShadow_1_1"/>
      <feBlend mode="normal" in="SourceGraphic" in2="effect1_dropShadow_1_1" result="shape"/>
    </filter>
  </defs>

  <rect width="1940" height="920" rx="44" fill="url(#bg)"/>

  <circle cx="1540" cy="108" r="142" fill="#F6C17A" fill-opacity="0.22"/>
  <circle cx="1728" cy="756" r="178" fill="#DDE7F2"/>
  <circle cx="1248" cy="740" r="108" fill="#F3D8B8" fill-opacity="0.64"/>
  <circle cx="990" cy="212" r="64" fill="#E7EEF6"/>

  <path d="M0 704C222 618 406 592 576 604C759 617 885 705 1044 736C1265 778 1493 688 1940 500V920H0V704Z" fill="#F6E9D8"/>

  <rect x="120" y="154" width="212" height="52" rx="26" fill="#163B65" fill-opacity="0.08"/>
  <text x="156" y="188" fill="#163B65" font-family="Segoe UI, Arial, sans-serif" font-size="28" font-weight="700" letter-spacing="1.4">ECOVERA</text>

  <text x="120" y="316" fill="#163B65" font-family="Segoe UI, Arial, sans-serif" font-size="92" font-weight="800">
    Signature
  </text>
  <text x="120" y="414" fill="#163B65" font-family="Segoe UI, Arial, sans-serif" font-size="92" font-weight="800">
    Collection
  </text>
  <text x="120" y="492" fill="#5E6E7E" font-family="Segoe UI, Arial, sans-serif" font-size="34" font-weight="500">
    Elevated fragrance, curated gifting, and a polished everyday look.
  </text>
  <text x="120" y="548" fill="#7A8896" font-family="Segoe UI, Arial, sans-serif" font-size="28" font-weight="500">
    Designed to sit cleanly across desktop and mobile banner layouts.
  </text>

  <rect x="120" y="612" width="254" height="74" rx="37" fill="#163B65"/>
  <text x="178" y="659" fill="#FFF8F0" font-family="Segoe UI, Arial, sans-serif" font-size="32" font-weight="700">
    New Season
  </text>

  <rect x="402" y="612" width="228" height="74" rx="37" fill="#FFFFFF" fill-opacity="0.72" stroke="#D7DEE7" stroke-width="2"/>
  <text x="458" y="659" fill="#163B65" font-family="Segoe UI, Arial, sans-serif" font-size="32" font-weight="700">
    Shop Now
  </text>

  <g filter="url(#shadow)">
    <rect x="1104" y="206" width="510" height="494" rx="48" fill="url(#accent)"/>
  </g>

  <rect x="1174" y="258" width="372" height="390" rx="40" fill="#FFF8F0"/>
  <rect x="1216" y="300" width="288" height="306" rx="30" fill="url(#warm)"/>

  <path d="M1359 244C1398 244 1430 212 1430 173C1430 134 1398 102 1359 102C1320 102 1288 134 1288 173C1288 212 1320 244 1359 244Z" fill="#F9D3A6"/>
  <path d="M1318 138H1400V212C1400 237 1382 257 1359 257C1336 257 1318 237 1318 212V138Z" fill="#163B65"/>
  <rect x="1338" y="116" width="42" height="44" rx="14" fill="#2A6A8E"/>
  <rect x="1316" y="352" width="90" height="140" rx="30" fill="#FFF1DE" fill-opacity="0.92"/>
  <rect x="1424" y="392" width="52" height="100" rx="18" fill="#FFE0BD" fill-opacity="0.92"/>
  <circle cx="1270" cy="346" r="16" fill="#FFF1DE" fill-opacity="0.74"/>
  <circle cx="1454" cy="330" r="22" fill="#FFE7C7" fill-opacity="0.92"/>
  <circle cx="1496" cy="540" r="18" fill="#163B65" fill-opacity="0.14"/>

  <text x="1228" y="570" fill="#FFF8F0" font-family="Segoe UI, Arial, sans-serif" font-size="36" font-weight="700">
    Refined tones.
  </text>
  <text x="1228" y="614" fill="#FFF8F0" fill-opacity="0.9" font-family="Segoe UI, Arial, sans-serif" font-size="24" font-weight="500">
    A banner tailored for wide homepage presentation.
  </text>
</svg>
